<svg height="512pt" viewBox="0 -119 512 512" width="512pt" xmlns="http://www.w3.org/2000/svg"><path d="m512 137.121094c0 3.6875-1.78125 7.386718-5.359375 9.582031l-204.757813 125.839844c-7.503906 4.617187-17.160156-.785157-17.160156-9.589844v-46.085937c0-8.804688-9.644531-14.199219-17.148437-9.582032l-106.199219 65.257813c-7.503906 4.617187-17.148438-.789063-17.148438-9.589844v-251.675781c0-8.800782 9.644532-14.207032 17.148438-9.589844l106.199219 65.257812c7.503906 4.617188 17.148437-.777343 17.148437-9.582031v-46.085937c0-8.800782 9.65625-14.207032 17.160156-9.589844l204.757813 125.839844c3.578125 2.195312 5.359375 5.894531 5.359375 9.59375zm0 0" fill="#ffde55"/><path d="m512 137.121094c0 3.6875-1.78125 7.386718-5.359375 9.582031l-204.757813 125.839844c-7.503906 4.617187-17.160156-.785157-17.160156-9.589844v-46.085937c0-8.804688-9.644531-14.199219-17.148437-9.582032l-106.199219 65.257813c-7.503906 4.617187-17.148438-.789063-17.148438-9.589844v-125.832031zm0 0" fill="#ffd422"/><path d="m227.265625 137.121094c0 3.6875-1.789063 7.386718-5.359375 9.582031l-204.757812 125.839844c-7.503907 4.617187-17.148438-.785157-17.148438-9.589844v-251.671875c0-8.804688 9.644531-14.210938 17.148438-9.59375l204.757812 125.839844c3.570312 2.195312 5.359375 5.894531 5.359375 9.59375zm0 0" fill="#ff5b5b"/><path d="m227.265625 137.121094c0 3.6875-1.789063 7.386718-5.359375 9.582031l-204.757812 125.839844c-7.503907 4.617187-17.148438-.785157-17.148438-9.589844v-125.832031zm0 0" fill="#ff2828"/></svg>